<svg xmlns="http://www.w3.org/2000/svg" viewBox="0 -4 168 56" shape-rendering="crispEdges" aria-label="The InfoDump: a dump truck delivering to a hoard of project treasures, with Linear Timer at the peak">
  <!-- ============ TRUCK (left side, x=0-92) ============ -->
  <!-- Cargo bytes flying out of bed -->
  <g fill="#ffbe3c">
    <rect x="44" y="2" width="2" height="2"/>
    <rect x="54" y="0" width="2" height="2"/>
    <rect x="66" y="2" width="2" height="2"/>
    <rect x="78" y="0" width="2" height="2"/>
  </g>
  <g fill="#7fe8d6">
    <rect x="50" y="2" width="2" height="2"/>
    <rect x="62" y="0" width="2" height="2"/>
    <rect x="74" y="2" width="2" height="2"/>
  </g>
  <!-- Smoke as 1s and 0s -->
  <g fill="#50d2be">
    <rect x="19" y="-3" width="3" height="1"/>
    <rect x="19" y="-2" width="1" height="1"/>
    <rect x="21" y="-2" width="1" height="1"/>
    <rect x="19" y="-1" width="3" height="1"/>
  </g>
  <g fill="#ffbe3c">
    <rect x="24" y="-3" width="1" height="3"/>
  </g>
  <!-- Cargo pile peeking above bed wall -->
  <rect x="44" y="6" width="6" height="6" fill="#3aa090"/>
  <rect x="44" y="6" width="6" height="1" fill="#50d2be"/>
  <rect x="52" y="4" width="6" height="8" fill="#3aa090"/>
  <rect x="52" y="4" width="6" height="1" fill="#50d2be"/>
  <rect x="60" y="6" width="6" height="6" fill="#3aa090"/>
  <rect x="60" y="6" width="6" height="1" fill="#50d2be"/>
  <rect x="68" y="4" width="6" height="8" fill="#3aa090"/>
  <rect x="68" y="4" width="6" height="1" fill="#50d2be"/>
  <rect x="76" y="6" width="6" height="6" fill="#3aa090"/>
  <rect x="76" y="6" width="6" height="1" fill="#50d2be"/>
  <rect x="84" y="4" width="6" height="8" fill="#3aa090"/>
  <rect x="84" y="4" width="6" height="1" fill="#50d2be"/>
  <!-- BED -->
  <rect x="36" y="10" width="56" height="22" fill="#0a1f1c"/>
  <rect x="38" y="12" width="52" height="18" fill="#50d2be"/>
  <rect x="38" y="12" width="52" height="2" fill="#7fe8d6"/>
  <rect x="88" y="14" width="2" height="14" fill="#3aa090"/>
  <rect x="38" y="28" width="52" height="2" fill="#3aa090"/>
  <!-- CAB -->
  <rect x="4" y="12" width="32" height="20" fill="#0a1f1c"/>
  <rect x="6" y="14" width="28" height="16" fill="#50d2be"/>
  <rect x="6" y="14" width="28" height="2" fill="#7fe8d6"/>
  <rect x="32" y="16" width="2" height="14" fill="#3aa090"/>
  <rect x="6" y="28" width="28" height="2" fill="#3aa090"/>
  <!-- Window -->
  <rect x="10" y="16" width="20" height="10" fill="#0a1f1c"/>
  <rect x="11" y="17" width="18" height="8" fill="#2a4a45"/>
  <rect x="12" y="18" width="4" height="1" fill="#7fe8d6"/>
  <rect x="13" y="19" width="4" height="1" fill="#7fe8d6"/>
  <rect x="22" y="18" width="3" height="1" fill="#7fe8d6"/>
  <rect x="23" y="19" width="3" height="1" fill="#7fe8d6"/>
  <!-- Side mirror -->
  <rect x="2" y="18" width="2" height="4" fill="#0a1f1c"/>
  <rect x="2" y="19" width="2" height="2" fill="#50d2be"/>
  <rect x="2" y="19" width="2" height="1" fill="#7fe8d6"/>
  <!-- Headlight -->
  <rect x="4" y="22" width="2" height="3" fill="#0a1f1c"/>
  <rect x="4" y="23" width="2" height="2" fill="#ffbe3c"/>
  <rect x="4" y="23" width="2" height="1" fill="#fff5cc"/>
  <!-- Grille -->
  <rect x="4" y="25" width="4" height="3" fill="#0a1f1c"/>
  <rect x="4" y="26" width="4" height="1" fill="#3aa090"/>
  <!-- Front bumper -->
  <rect x="0" y="28" width="8" height="4" fill="#0a1f1c"/>
  <rect x="0" y="29" width="8" height="2" fill="#3aa090"/>
  <rect x="0" y="29" width="8" height="1" fill="#7fe8d6"/>
  <!-- Chassis -->
  <rect x="4" y="32" width="86" height="2" fill="#0a1f1c"/>
  <!-- Smokestack -->
  <rect x="21" y="2" width="4" height="2" fill="#0a1f1c"/>
  <rect x="21" y="2" width="4" height="1" fill="#1a3d38"/>
  <rect x="22" y="4" width="2" height="10" fill="#1a3d38"/>
  <rect x="22" y="4" width="1" height="10" fill="#3aa090"/>
  <!-- Bed headboard (overhangs cab) -->
  <rect x="28" y="4" width="12" height="8" fill="#0a1f1c"/>
  <rect x="30" y="6" width="8" height="4" fill="#50d2be"/>
  <rect x="30" y="6" width="8" height="1" fill="#7fe8d6"/>
  <rect x="30" y="9" width="8" height="1" fill="#3aa090"/>
  <!-- Fenders -->
  <rect x="10" y="32" width="14" height="2" fill="#50d2be"/>
  <rect x="10" y="32" width="14" height="1" fill="#7fe8d6"/>
  <rect x="56" y="32" width="30" height="2" fill="#50d2be"/>
  <rect x="56" y="32" width="30" height="1" fill="#7fe8d6"/>
  <!-- Front wheel -->
  <rect x="14" y="33" width="6" height="1" fill="#3aa090"/>
  <rect x="12" y="34" width="10" height="9" fill="#2a4a45"/>
  <rect x="11" y="36" width="1" height="6" fill="#2a4a45"/>
  <rect x="22" y="36" width="1" height="6" fill="#2a4a45"/>
  <rect x="12" y="43" width="10" height="1" fill="#0a1f1c"/>
  <rect x="14" y="44" width="6" height="1" fill="#0a1f1c"/>
  <rect x="14" y="36" width="6" height="6" fill="#50d2be"/>
  <rect x="14" y="36" width="6" height="1" fill="#7fe8d6"/>
  <rect x="14" y="41" width="6" height="1" fill="#3aa090"/>
  <rect x="16" y="38" width="2" height="2" fill="#0a1f1c"/>
  <!-- Rear wheel 1 -->
  <rect x="62" y="33" width="6" height="1" fill="#3aa090"/>
  <rect x="60" y="34" width="10" height="9" fill="#2a4a45"/>
  <rect x="59" y="36" width="1" height="6" fill="#2a4a45"/>
  <rect x="70" y="36" width="1" height="6" fill="#2a4a45"/>
  <rect x="60" y="43" width="10" height="1" fill="#0a1f1c"/>
  <rect x="62" y="44" width="6" height="1" fill="#0a1f1c"/>
  <rect x="62" y="36" width="6" height="6" fill="#50d2be"/>
  <rect x="62" y="36" width="6" height="1" fill="#7fe8d6"/>
  <rect x="62" y="41" width="6" height="1" fill="#3aa090"/>
  <rect x="64" y="38" width="2" height="2" fill="#0a1f1c"/>
  <!-- Rear wheel 2 -->
  <rect x="76" y="33" width="6" height="1" fill="#3aa090"/>
  <rect x="74" y="34" width="10" height="9" fill="#2a4a45"/>
  <rect x="73" y="36" width="1" height="6" fill="#2a4a45"/>
  <rect x="84" y="36" width="1" height="6" fill="#2a4a45"/>
  <rect x="74" y="43" width="10" height="1" fill="#0a1f1c"/>
  <rect x="76" y="44" width="6" height="1" fill="#0a1f1c"/>
  <rect x="76" y="36" width="6" height="6" fill="#50d2be"/>
  <rect x="76" y="36" width="6" height="1" fill="#7fe8d6"/>
  <rect x="76" y="41" width="6" height="1" fill="#3aa090"/>
  <rect x="78" y="38" width="2" height="2" fill="#0a1f1c"/>

  <!-- ============ THE INFODUMP HOARD (right side, x=96-168) ============ -->

  <!-- Pile shadow on ground (cartoon shadow) -->
  <rect x="92" y="44" width="76" height="1" fill="#0a1f1c"/>

  <!-- ===== BACK ROW (darkest, partially hidden) ===== -->
  <!-- Back block (back-left) -->
  <rect x="96" y="36" width="8" height="8" fill="#0a1f1c"/>
  <rect x="98" y="38" width="6" height="6" fill="#1a3d38"/>
  <!-- Back block (back-right) -->
  <rect x="156" y="36" width="8" height="8" fill="#0a1f1c"/>
  <rect x="156" y="38" width="6" height="6" fill="#1a3d38"/>
  <!-- Back tall block (mid-back) -->
  <rect x="124" y="30" width="8" height="14" fill="#0a1f1c"/>
  <rect x="126" y="32" width="6" height="12" fill="#1a3d38"/>
  <!-- Back coin (mid-back left) -->
  <rect x="108" y="32" width="6" height="6" fill="#0a1f1c"/>
  <rect x="109" y="33" width="4" height="4" fill="#884a00"/>

  <!-- ===== MID ROW (medium tones) ===== -->
  <!-- Mid block (left) - amber -->
  <rect x="100" y="34" width="10" height="10" fill="#0a1f1c"/>
  <rect x="102" y="36" width="8" height="8" fill="#ffbe3c"/>
  <rect x="102" y="36" width="8" height="1" fill="#fff5cc"/>
  <rect x="102" y="36" width="1" height="8" fill="#fff5cc"/>
  <rect x="102" y="42" width="8" height="2" fill="#d99a30"/>
  <rect x="108" y="36" width="2" height="8" fill="#d99a30"/>
  <!-- Mid gear (mid) - teal -->
  <rect x="113" y="34" width="2" height="2" fill="#0a1f1c"/>
  <rect x="119" y="34" width="2" height="2" fill="#0a1f1c"/>
  <rect x="111" y="36" width="10" height="6" fill="#0a1f1c"/>
  <rect x="113" y="36" width="2" height="2" fill="#7fe8d6"/>
  <rect x="119" y="36" width="2" height="2" fill="#50d2be"/>
  <rect x="113" y="38" width="6" height="2" fill="#7fe8d6"/>
  <rect x="113" y="40" width="6" height="2" fill="#50d2be"/>
  <rect x="113" y="42" width="2" height="2" fill="#0a1f1c"/>
  <rect x="119" y="42" width="2" height="2" fill="#0a1f1c"/>
  <rect x="115" y="38" width="2" height="2" fill="#0a1f1c"/>
  <!-- Mid block (right) - amber -->
  <rect x="142" y="34" width="10" height="10" fill="#0a1f1c"/>
  <rect x="144" y="36" width="8" height="8" fill="#ffbe3c"/>
  <rect x="144" y="36" width="8" height="1" fill="#fff5cc"/>
  <rect x="144" y="36" width="1" height="8" fill="#fff5cc"/>
  <rect x="144" y="42" width="8" height="2" fill="#d99a30"/>
  <rect x="150" y="36" width="2" height="8" fill="#d99a30"/>

  <!-- ===== UPPER ROW (brightest items) ===== -->
  <!-- Upper coin (left) - amber disc -->
  <rect x="116" y="28" width="2" height="6" fill="#0a1f1c"/>
  <rect x="120" y="28" width="2" height="6" fill="#0a1f1c"/>
  <rect x="118" y="26" width="2" height="2" fill="#0a1f1c"/>
  <rect x="118" y="34" width="2" height="2" fill="#0a1f1c"/>
  <rect x="118" y="28" width="2" height="6" fill="#ffbe3c"/>
  <rect x="116" y="30" width="6" height="2" fill="#ffbe3c"/>
  <rect x="118" y="28" width="2" height="1" fill="#fff5cc"/>
  <rect x="118" y="33" width="2" height="1" fill="#d99a30"/>
  <!-- Upper block (right) - teal -->
  <rect x="132" y="28" width="10" height="10" fill="#0a1f1c"/>
  <rect x="134" y="30" width="8" height="8" fill="#50d2be"/>
  <rect x="134" y="30" width="8" height="1" fill="#7fe8d6"/>
  <rect x="134" y="30" width="1" height="8" fill="#7fe8d6"/>
  <rect x="134" y="36" width="8" height="2" fill="#3aa090"/>
  <rect x="140" y="30" width="2" height="8" fill="#3aa090"/>
  <!-- Binary "1" floating in pile -->
  <rect x="129" y="31" width="2" height="6" fill="#0a1f1c"/>
  <rect x="129" y="31" width="2" height="1" fill="#fff5cc"/>
  <rect x="129" y="32" width="2" height="4" fill="#ffbe3c"/>

  <!-- ===== PEAK ITEMS ===== -->
  <!-- Star/sparkle to the left of the LT icon -->
  <rect x="118" y="14" width="1" height="1" fill="#fff5cc"/>
  <rect x="117" y="15" width="3" height="1" fill="#ffbe3c"/>
  <rect x="118" y="16" width="1" height="1" fill="#fff5cc"/>
  <!-- Linear Timer+ icon (centerpiece, prominent at peak) -->
  <!-- Outer outline (dark border for cartoon pop) -->
  <rect x="124" y="14" width="14" height="14" fill="#0a1f1c"/>
  <rect x="125" y="15" width="12" height="12" fill="#1a3d38"/>
  <!-- Amber timer ring (top arc) -->
  <rect x="128" y="16" width="6" height="1" fill="#ffbe3c"/>
  <rect x="127" y="17" width="1" height="1" fill="#ffbe3c"/>
  <rect x="134" y="17" width="1" height="1" fill="#ffbe3c"/>
  <!-- Amber timer ring (sides) -->
  <rect x="126" y="18" width="1" height="6" fill="#ffbe3c"/>
  <rect x="135" y="18" width="1" height="6" fill="#ffbe3c"/>
  <!-- Amber timer ring (bottom arc) -->
  <rect x="127" y="24" width="1" height="1" fill="#ffbe3c"/>
  <rect x="134" y="24" width="1" height="1" fill="#ffbe3c"/>
  <rect x="128" y="25" width="6" height="1" fill="#ffbe3c"/>
  <!-- Amber timer center dot -->
  <rect x="130" y="20" width="2" height="2" fill="#ffbe3c"/>
  <!-- Highlight on timer ring (top-left, cartoon shine) -->
  <rect x="128" y="16" width="2" height="1" fill="#fff5cc"/>
  <rect x="126" y="18" width="1" height="2" fill="#fff5cc"/>
  <!-- Sparkle to the right of the LT icon -->
  <rect x="142" y="18" width="1" height="1" fill="#fff5cc"/>
  <rect x="141" y="19" width="3" height="1" fill="#ffbe3c"/>
  <rect x="142" y="20" width="1" height="1" fill="#fff5cc"/>

  <!-- ===== FRONT ROW (closest, brightest amber, partially overlapping back items) ===== -->
  <!-- Front coin/disc (far left, ground level) - amber -->
  <rect x="98" y="40" width="2" height="4" fill="#0a1f1c"/>
  <rect x="102" y="40" width="2" height="4" fill="#0a1f1c"/>
  <rect x="100" y="38" width="2" height="2" fill="#0a1f1c"/>
  <rect x="100" y="44" width="2" height="1" fill="#0a1f1c"/>
  <rect x="100" y="40" width="2" height="4" fill="#ffbe3c"/>
  <rect x="98" y="42" width="6" height="1" fill="#ffbe3c"/>
  <rect x="100" y="40" width="2" height="1" fill="#fff5cc"/>
  <!-- Front block (mid-front) - amber, big, prominent -->
  <rect x="120" y="36" width="12" height="8" fill="#0a1f1c"/>
  <rect x="122" y="38" width="10" height="6" fill="#ffbe3c"/>
  <rect x="122" y="38" width="10" height="1" fill="#fff5cc"/>
  <rect x="122" y="38" width="1" height="6" fill="#fff5cc"/>
  <rect x="122" y="43" width="10" height="1" fill="#d99a30"/>
  <rect x="130" y="38" width="2" height="6" fill="#d99a30"/>
  <!-- Cartoon shine/highlight on front block -->
  <rect x="124" y="39" width="2" height="1" fill="#fff5cc"/>
  <!-- Front gear (front-right) - amber -->
  <rect x="151" y="36" width="2" height="2" fill="#0a1f1c"/>
  <rect x="157" y="36" width="2" height="2" fill="#0a1f1c"/>
  <rect x="149" y="38" width="10" height="6" fill="#0a1f1c"/>
  <rect x="151" y="38" width="2" height="2" fill="#ffbe3c"/>
  <rect x="157" y="38" width="2" height="2" fill="#d99a30"/>
  <rect x="151" y="40" width="6" height="2" fill="#ffbe3c"/>
  <rect x="151" y="42" width="6" height="2" fill="#d99a30"/>
  <rect x="151" y="44" width="2" height="1" fill="#0a1f1c"/>
  <rect x="157" y="44" width="2" height="1" fill="#0a1f1c"/>
  <rect x="153" y="40" width="2" height="2" fill="#0a1f1c"/>
  <rect x="151" y="38" width="2" height="1" fill="#fff5cc"/>
  <!-- Binary "0" floating front-left -->
  <rect x="106" y="40" width="6" height="1" fill="#0a1f1c"/>
  <rect x="106" y="40" width="6" height="1" fill="#7fe8d6"/>
  <rect x="106" y="41" width="2" height="1" fill="#50d2be"/>
  <rect x="110" y="41" width="2" height="1" fill="#50d2be"/>
  <rect x="106" y="42" width="6" height="1" fill="#50d2be"/>
  <!-- Wrench handle poking out far-left, front-most -->
  <rect x="86" y="42" width="14" height="3" fill="#0a1f1c"/>
  <rect x="88" y="42" width="12" height="1" fill="#888"/>
  <rect x="88" y="43" width="12" height="1" fill="#666"/>
  <rect x="86" y="42" width="2" height="3" fill="#888"/>
  <rect x="86" y="42" width="2" height="1" fill="#aaa"/>
  <!-- Hammer head poking out far-right -->
  <rect x="160" y="40" width="6" height="4" fill="#0a1f1c"/>
  <rect x="161" y="41" width="4" height="2" fill="#888"/>
  <rect x="161" y="41" width="4" height="1" fill="#aaa"/>

  <!-- ============ GROUND LINE ============ -->
  <rect x="0" y="45" width="168" height="2" fill="#1a3d38"/>
  <rect x="0" y="45" width="168" height="1" fill="#3aa090"/>
  <!-- Ground texture (pebbles) -->
  <rect x="36" y="47" width="2" height="1" fill="#1a3d38"/>
  <rect x="56" y="47" width="2" height="1" fill="#1a3d38"/>
  <rect x="92" y="47" width="3" height="1" fill="#1a3d38"/>
  <rect x="120" y="47" width="2" height="1" fill="#1a3d38"/>
  <rect x="148" y="47" width="2" height="1" fill="#1a3d38"/>
</svg>
